<svg xmlns="http://www.w3.org/2000/svg" width="219.403" height="52.038" viewBox="0 0 219.403 52.038">
  <g id="Logo-01" transform="translate(0 0)">
    <path id="Path_101193" data-name="Path 101193" d="M189.356,621.277a1.719,1.719,0,0,1-.737-.558,1.541,1.541,0,0,1-.29-.888H189.7a.612.612,0,0,0,.655.6.717.717,0,0,0,.452-.13.45.45,0,0,0,.165-.366.439.439,0,0,0-.133-.325,1.087,1.087,0,0,0-.325-.211,5.474,5.474,0,0,0-.542-.187,6.007,6.007,0,0,1-.837-.317,1.535,1.535,0,0,1-.558-.469,1.305,1.305,0,0,1-.233-.812,1.39,1.39,0,0,1,.542-1.156,2.548,2.548,0,0,1,2.8,0,1.5,1.5,0,0,1,.574,1.165h-1.395a.542.542,0,0,0-.19-.4.66.66,0,0,0-.444-.146.56.56,0,0,0-.376.122.452.452,0,0,0-.144.357.444.444,0,0,0,.241.4,4.068,4.068,0,0,0,.756.309,7.147,7.147,0,0,1,.831.33,1.574,1.574,0,0,1,.542.461,1.224,1.224,0,0,1,.236.777,1.537,1.537,0,0,1-.23.812,1.624,1.624,0,0,1-.666.588,2.279,2.279,0,0,1-1.032.217,2.735,2.735,0,0,1-1.04-.171Z" transform="translate(-174.158 -569.426)" fill="#fff"/>
    <path id="Path_101194" data-name="Path 101194" d="M214.592,616.35v1.032h-1.4v4.257H211.9v-4.257h-1.4V616.35Z" transform="translate(-190.324 -569.653)" fill="#fff"/>
    <path id="Path_101195" data-name="Path 101195" d="M235.905,620.7h-1.974l-.317.934H232.26l1.915-5.289h1.49l1.915,5.289h-1.354Zm-.333-.994-.655-1.937-.647,1.937Z" transform="translate(-206.19 -569.653)" fill="#fff"/>
    <path id="Path_101196" data-name="Path 101196" d="M262.317,621.636l-1.1-2h-.309v2H259.62v-5.289h2.167a2.358,2.358,0,0,1,1.064.22,1.5,1.5,0,0,1,.661.6,1.664,1.664,0,0,1,.217.848,1.578,1.578,0,0,1-.3.942,1.625,1.625,0,0,1-.878.588l1.219,2.093Zm-1.408-2.909h.8a.726.726,0,0,0,.542-.173.646.646,0,0,0,.176-.49.629.629,0,0,0-.176-.474.737.737,0,0,0-.542-.173h-.8Z" transform="translate(-226.141 -569.65)" fill="#fff"/>
    <path id="Path_101197" data-name="Path 101197" d="M286.359,616.35v1.032h-1.4v4.257H283.67v-4.257h-1.4V616.35Z" transform="translate(-242.657 -569.653)" fill="#fff"/>
    <path id="Path_101198" data-name="Path 101198" d="M306.616,616.35v5.289H305.33V616.35Z" transform="translate(-259.471 -569.653)" fill="#fff"/>
    <path id="Path_101199" data-name="Path 101199" d="M323.792,621.639h-1.286l-2.167-3.25v3.25H319.05V616.35h1.289l2.167,3.277V616.35h1.286Z" transform="translate(-269.476 -569.653)" fill="#fff"/>
    <path id="Path_101200" data-name="Path 101200" d="M348.543,617.83a.969.969,0,0,0-.417-.414,1.353,1.353,0,0,0-.628-.138,1.294,1.294,0,0,0-1,.409,1.556,1.556,0,0,0-.377,1.1,1.576,1.576,0,0,0,.4,1.14,1.439,1.439,0,0,0,1.083.412,1.321,1.321,0,0,0,.812-.241,1.374,1.374,0,0,0,.479-.693H347.27v-.951h2.8v1.2a2.509,2.509,0,0,1-.487.9,2.541,2.541,0,0,1-.869.669,2.689,2.689,0,0,1-1.189.257,2.8,2.8,0,0,1-1.4-.344,2.437,2.437,0,0,1-.959-.953,3.019,3.019,0,0,1,0-2.789,2.477,2.477,0,0,1,.953-.959,2.817,2.817,0,0,1,1.395-.341,2.708,2.708,0,0,1,1.6.46,2.166,2.166,0,0,1,.861,1.273Z" transform="translate(-288.273 -569.46)" fill="#fff"/>
    <path id="Path_101201" data-name="Path 101201" d="M387.611,618.89a1.553,1.553,0,0,1-.65.615,2.288,2.288,0,0,1-1.083.233h-.8v1.9H383.79v-5.287h2.088a2.369,2.369,0,0,1,1.07.219,1.522,1.522,0,0,1,.655.6,1.749,1.749,0,0,1,.219.883,1.7,1.7,0,0,1-.211.84Zm-1.281-.349a.753.753,0,0,0,0-.98.767.767,0,0,0-.542-.173h-.7v1.327h.7A.779.779,0,0,0,386.33,618.541Z" transform="translate(-316.682 -569.65)" fill="#fff"/>
    <path id="Path_101202" data-name="Path 101202" d="M407.262,621.139a2.579,2.579,0,0,1-.986-.967,2.849,2.849,0,0,1,0-2.792,2.609,2.609,0,0,1,.986-.964,2.87,2.87,0,0,1,2.735,0,2.55,2.55,0,0,1,.978.964,2.9,2.9,0,0,1,0,2.792,2.565,2.565,0,0,1-.98.967,2.86,2.86,0,0,1-2.73,0Zm2.381-1.248a1.836,1.836,0,0,0,0-2.234,1.3,1.3,0,0,0-1.013-.417,1.319,1.319,0,0,0-1.021.414,1.844,1.844,0,0,0,0,2.24,1.446,1.446,0,0,0,2.034,0Z" transform="translate(-332.812 -569.449)" fill="#fff"/>
    <path id="Path_101203" data-name="Path 101203" d="M435.429,616.35v5.289H434.14V616.35Z" transform="translate(-353.396 -569.653)" fill="#fff"/>
    <path id="Path_101204" data-name="Path 101204" d="M452.641,621.639h-1.289l-2.153-3.25v3.25H447.91V616.35H449.2l2.153,3.277V616.35h1.289Z" transform="translate(-363.437 -569.653)" fill="#fff"/>
    <path id="Path_101205" data-name="Path 101205" d="M477.422,616.35v1.032h-1.4v4.257h-1.286v-4.257h-1.4V616.35Z" transform="translate(-381.973 -569.653)" fill="#fff"/>
    <path id="Path_101206" data-name="Path 101206" d="M511.292,616.35v1.032h-2.153V618.5h1.611v1.008h-1.611v2.14H507.85V616.35Z" transform="translate(-407.144 -569.653)" fill="#fff"/>
    <path id="Path_101207" data-name="Path 101207" d="M529.174,621.14a2.588,2.588,0,0,1-.989-.967,2.849,2.849,0,0,1,0-2.792,2.617,2.617,0,0,1,.989-.964,2.865,2.865,0,0,1,2.733,0,2.558,2.558,0,0,1,.98.964,2.9,2.9,0,0,1,0,2.792,2.564,2.564,0,0,1-.98.967,2.86,2.86,0,0,1-2.73,0Zm2.38-1.249a1.835,1.835,0,0,0,0-2.234,1.452,1.452,0,0,0-2.034,0,1.833,1.833,0,0,0,0,2.24,1.446,1.446,0,0,0,2.034,0Z" transform="translate(-421.706 -569.449)" fill="#fff"/>
    <path id="Path_101208" data-name="Path 101208" d="M558.788,621.636l-1.083-2H557.4v2H556.11v-5.289h2.167a2.382,2.382,0,0,1,1.067.219,1.509,1.509,0,0,1,.658.6,1.67,1.67,0,0,1,.219.848,1.583,1.583,0,0,1-.3.943,1.624,1.624,0,0,1-.877.588l1.219,2.093Zm-1.408-2.908h.813a.727.727,0,0,0,.542-.173.648.648,0,0,0,.179-.49.631.631,0,0,0-.179-.474.737.737,0,0,0-.542-.173h-.813Z" transform="translate(-442.334 -569.65)" fill="#fff"/>
    <path id="Path_101209" data-name="Path 101209" d="M594.671,616.35l-1.831,3.542v1.747h-1.289v-1.747l-1.831-3.542h1.463l1.024,2.215,1.018-2.215Z" transform="translate(-466.841 -569.653)" fill="#fff"/>
    <path id="Path_101210" data-name="Path 101210" d="M615.992,621.139a2.588,2.588,0,0,1-.988-.967,2.867,2.867,0,0,1,0-2.792,2.615,2.615,0,0,1,.989-.964,2.87,2.87,0,0,1,2.735,0,2.568,2.568,0,0,1,.977.964,2.9,2.9,0,0,1,0,2.792,2.565,2.565,0,0,1-.98.967,2.86,2.86,0,0,1-2.73,0Zm2.381-1.248a1.836,1.836,0,0,0,0-2.234,1.452,1.452,0,0,0-2.034,0,1.833,1.833,0,0,0,0,2.24,1.446,1.446,0,0,0,2.034,0Z" transform="translate(-485.013 -569.449)" fill="#fff"/>
    <path id="Path_101211" data-name="Path 101211" d="M644.059,616.35v3.155a1.053,1.053,0,0,0,.233.731.885.885,0,0,0,.688.257.9.9,0,0,0,.691-.257,1.019,1.019,0,0,0,.241-.731V616.35H647.2v3.155a2.245,2.245,0,0,1-.3,1.2,1.939,1.939,0,0,1-.813.739,2.553,2.553,0,0,1-1.135.246,2.484,2.484,0,0,1-1.118-.244,1.831,1.831,0,0,1-.78-.739,2.362,2.362,0,0,1-.287-1.2V616.35Z" transform="translate(-505.521 -569.653)" fill="#fff"/>
    <path id="Path_101212" data-name="Path 101212" d="M670.708,621.636l-1.1-2H669.3v2H668v-5.289h2.167a2.373,2.373,0,0,1,1.067.22,1.5,1.5,0,0,1,.658.6,1.669,1.669,0,0,1,.219.848,1.581,1.581,0,0,1-.3.942,1.6,1.6,0,0,1-.878.588l1.221,2.093Zm-1.408-2.908h.813a.729.729,0,0,0,.542-.174.658.658,0,0,0,.176-.49.639.639,0,0,0-.176-.474.739.739,0,0,0-.542-.173H669.3Z" transform="translate(-523.921 -569.65)" fill="#fff"/>
    <path id="Path_101213" data-name="Path 101213" d="M702.731,617.427a2.436,2.436,0,0,1,.942-.959,2.765,2.765,0,0,1,1.376-.341,2.616,2.616,0,0,1,1.612.5,2.362,2.362,0,0,1,.9,1.354h-1.414a1.163,1.163,0,0,0-.449-.5,1.252,1.252,0,0,0-.658-.173,1.223,1.223,0,0,0-.964.414,1.838,1.838,0,0,0,0,2.215,1.224,1.224,0,0,0,.964.414,1.273,1.273,0,0,0,.658-.173,1.154,1.154,0,0,0,.45-.506h1.414a2.353,2.353,0,0,1-.9,1.354,2.649,2.649,0,0,1-1.611.493,2.74,2.74,0,0,1-1.376-.344,2.4,2.4,0,0,1-.942-.953,3.018,3.018,0,0,1,0-2.79Z" transform="translate(-548.997 -569.49)" fill="#fff"/>
    <path id="Path_101214" data-name="Path 101214" d="M732.3,620.7h-1.972l-.317.934H728.66l1.912-5.289h1.492l1.915,5.289h-1.354Zm-.33-.994-.655-1.937-.647,1.937Z" transform="translate(-568.153 -569.653)" fill="#fff"/>
    <path id="Path_101215" data-name="Path 101215" d="M758.708,621.636l-1.1-2H757.3v2H756v-5.289h2.167a2.358,2.358,0,0,1,1.064.22,1.5,1.5,0,0,1,.661.6,1.7,1.7,0,0,1,.217.848,1.562,1.562,0,0,1-.3.942,1.6,1.6,0,0,1-.877.588l1.221,2.093Zm-1.408-2.909h.813a.728.728,0,0,0,.542-.173.658.658,0,0,0,.176-.49.639.639,0,0,0-.176-.474.739.739,0,0,0-.542-.173H757.3Z" transform="translate(-588.089 -569.65)" fill="#fff"/>
    <path id="Path_101216" data-name="Path 101216" d="M780.98,617.382v1.083h1.725v.994H780.98v1.162h1.95v1.032h-3.25v-5.3h3.25v1.032Z" transform="translate(-605.356 -569.653)" fill="#fff"/>
    <path id="Path_101217" data-name="Path 101217" d="M801.59,617.382v1.083h1.725v.994H801.59v1.162h1.95v1.032h-3.25v-5.3h3.25v1.032Z" transform="translate(-620.384 -569.653)" fill="#fff"/>
    <path id="Path_101218" data-name="Path 101218" d="M823.637,621.636l-1.1-2h-.309v2H820.94v-5.289h2.167a2.358,2.358,0,0,1,1.064.22,1.5,1.5,0,0,1,.661.6,1.7,1.7,0,0,1,.216.848,1.562,1.562,0,0,1-.3.948,1.6,1.6,0,0,1-.878.588l1.222,2.094Zm-1.408-2.909h.8a.729.729,0,0,0,.542-.173.648.648,0,0,0,.176-.49.629.629,0,0,0-.176-.474.739.739,0,0,0-.542-.173h-.8Z" transform="translate(-635.441 -569.65)" fill="#fff"/>
    <path id="Path_101219" data-name="Path 101219" d="M859.919,618.889a1.546,1.546,0,0,1-.647.615,2.29,2.29,0,0,1-1.083.233h-.8v1.9H856.1v-5.286h2.088a2.375,2.375,0,0,1,1.083.219,1.522,1.522,0,0,1,.655.6,1.775,1.775,0,0,1,.217.883A1.7,1.7,0,0,1,859.919,618.889Zm-1.278-.349a.761.761,0,0,0,0-.98.773.773,0,0,0-.542-.173h-.7v1.327h.7A.786.786,0,0,0,858.64,618.54Z" transform="translate(-661.079 -569.649)" fill="#fff"/>
    <path id="Path_101220" data-name="Path 101220" d="M881.365,620.7h-1.974l-.317.934H877.72l1.915-5.289h1.49l1.915,5.289h-1.354Zm-.32-.994-.655-1.937-.647,1.937Z" transform="translate(-676.844 -569.653)" fill="#fff"/>
    <path id="Path_101221" data-name="Path 101221" d="M908.1,616.35v1.032h-1.39v4.257h-1.3v-4.257H904V616.35Z" transform="translate(-696.007 -569.653)" fill="#fff"/>
    <path id="Path_101222" data-name="Path 101222" d="M931.67,616.35v5.289H930.38v-2.167h-2v2.167H927.09V616.35h1.286v2.072h2V616.35Z" transform="translate(-712.843 -569.653)" fill="#fff"/>
    <path id="Path_101223" data-name="Path 101223" d="M151.545,464.152a5.6,5.6,0,0,1-5.639-.1l-9.907-6,12.7-7.253,10.9-6.115a5.958,5.958,0,0,1,6.029.114l9.8,6Z" transform="translate(-136 -443.923)" fill="#fff"/>
    <path id="Path_101224" data-name="Path 101224" d="M189.765,521.5l5.568-3.22a5.378,5.378,0,0,1,2.218-.72,2.947,2.947,0,0,1,3.25,1.8,3.772,3.772,0,0,1,.271,1.457v18.042a1.774,1.774,0,0,1-1.37,1.828,2.73,2.73,0,0,1-2.123-.344l-7.534-4.6a4.6,4.6,0,0,1-2.224-3.859v-7.033A3.865,3.865,0,0,1,189.765,521.5Z" transform="translate(-173.786 -497.605)" fill="#fff"/>
    <path id="Path_101225" data-name="Path 101225" d="M268.022,533.146H256.78a1.571,1.571,0,0,0-1.324,2.416,3.692,3.692,0,0,0,.58.7,4.007,4.007,0,0,0,2.838,1.083,3.558,3.558,0,0,0,3.087-1.427,1.606,1.606,0,0,1,1.295-.685h6.229a9.831,9.831,0,0,1-5.563,6.568,11.492,11.492,0,0,1-4.813.977,11.688,11.688,0,0,1-5.714-1.37,9.706,9.706,0,0,1-3.913-3.913,12.086,12.086,0,0,1-1.411-5.958,12.237,12.237,0,0,1,1.389-5.958,9.628,9.628,0,0,1,3.894-3.913,12.689,12.689,0,0,1,11.391-.041,9.561,9.561,0,0,1,3.854,3.792,11.521,11.521,0,0,1,1.389,5.777v.019A1.958,1.958,0,0,1,268.022,533.146Zm-7.1-3.727a1.56,1.56,0,0,0,1.07-2.708l-.022-.019a4.334,4.334,0,0,0-2.936-1.018,4.238,4.238,0,0,0-2.838.978l-.052.043a1.571,1.571,0,0,0,1.056,2.735Z" transform="translate(-217.719 -499.608)" fill="#fff"/>
    <path id="Path_101226" data-name="Path 101226" d="M336.443,525.637a9.478,9.478,0,0,1,3.464-3.913,9.046,9.046,0,0,1,4.891-1.37,8.394,8.394,0,0,1,4.062.94,6.9,6.9,0,0,1,2.681,2.465v-3.093h3.486a3.209,3.209,0,0,1,3.207,3.209v18.633h-4.241a2.462,2.462,0,0,1-2.462-2.462v-.631a7.227,7.227,0,0,1-2.708,2.465,8.4,8.4,0,0,1-4.062.94,8.878,8.878,0,0,1-4.853-1.389,9.586,9.586,0,0,1-3.464-3.951A14.4,14.4,0,0,1,336.443,525.637Zm13.7,2a4.7,4.7,0,0,0-6.771-.019,5.392,5.392,0,0,0-1.389,3.932,5.537,5.537,0,0,0,1.389,3.973,4.658,4.658,0,0,0,6.771.019,6.317,6.317,0,0,0,0-7.905Z" transform="translate(-281.23 -499.653)" fill="#fff"/>
    <path id="Path_101227" data-name="Path 101227" d="M427.459,525.639a9.646,9.646,0,0,1,3.875-3.914,11.6,11.6,0,0,1,5.687-1.37,10.833,10.833,0,0,1,6.868,2.153,10.14,10.14,0,0,1,3.621,6.066h-5.687a2.264,2.264,0,0,1-1.9-.991,3.343,3.343,0,0,0-3-1.514,3.521,3.521,0,0,0-2.936,1.427,8.265,8.265,0,0,0,0,8.181,3.521,3.521,0,0,0,2.936,1.427,3.343,3.343,0,0,0,3-1.514,2.264,2.264,0,0,1,1.9-.991h5.687a10.252,10.252,0,0,1-3.64,6.029,10.719,10.719,0,0,1-6.849,2.191,11.575,11.575,0,0,1-5.687-1.37,9.631,9.631,0,0,1-3.875-3.914,13.429,13.429,0,0,1,0-11.9Z" transform="translate(-347.512 -499.654)" fill="#fff"/>
    <path id="Path_101228" data-name="Path 101228" d="M530.638,504.583a9.736,9.736,0,0,1,2.275,6.819v12.761h-3.006a3.651,3.651,0,0,1-3.648-3.648v-8.2a4.8,4.8,0,0,0-1.135-3.407,4.449,4.449,0,0,0-6.107,0,4.78,4.78,0,0,0-1.135,3.407v8.544a3.312,3.312,0,0,1-3.312,3.315h0a3.38,3.38,0,0,1-3.38-3.38V495.21h3.09a3.6,3.6,0,0,1,3.6,3.6v6.454a7.17,7.17,0,0,1,2.781-2.307,8.863,8.863,0,0,1,3.951-.861A7.757,7.757,0,0,1,530.638,504.583Z" transform="translate(-409.579 -481.32)" fill="#fff"/>
    <path id="Path_101229" data-name="Path 101229" d="M620.8,523.13a9.693,9.693,0,0,1,2.291,6.83v12.761h-3.052a3.6,3.6,0,0,1-3.6-3.6v-8.258a4.8,4.8,0,0,0-1.135-3.407,4.449,4.449,0,0,0-6.107,0,4.78,4.78,0,0,0-1.135,3.407v8.512a3.347,3.347,0,0,1-3.345,3.347h0a3.347,3.347,0,0,1-3.347-3.347V520.88h3.792a2.9,2.9,0,0,1,2.9,2.9h0a7.106,7.106,0,0,1,2.741-2.291,8.72,8.72,0,0,1,3.875-.84A7.931,7.931,0,0,1,620.8,523.13Z" transform="translate(-475.336 -499.868)" fill="#fff"/>
    <path id="Path_101230" data-name="Path 101230" d="M781.962,541.454a10,10,0,0,1-4.03-3.914,12.635,12.635,0,0,1,.03-11.878,10.082,10.082,0,0,1,4.062-3.932,12.929,12.929,0,0,1,11.586,0,10.094,10.094,0,0,1,4.062,3.932,12.476,12.476,0,0,1-.019,11.859,10.194,10.194,0,0,1-4.109,3.933,12.264,12.264,0,0,1-5.812,1.37A12.037,12.037,0,0,1,781.962,541.454Zm9.04-5.831a6.739,6.739,0,0,0,.041-8.049,4.449,4.449,0,0,0-6.478-.019,5.761,5.761,0,0,0-1.292,4.062,5.7,5.7,0,0,0,1.273,4.033,4.117,4.117,0,0,0,3.19,1.408A4.352,4.352,0,0,0,791,535.624Z" transform="translate(-603.009 -499.659)" fill="#fff"/>
    <path id="Path_101231" data-name="Path 101231" d="M878.587,522.839l-3.978-5.479a.942.942,0,0,0-1.706.542v3.331a2.941,2.941,0,0,1-2.939,2.941h-.812a2.941,2.941,0,0,1-2.941-2.941V495.21h3.448a3.25,3.25,0,0,1,3.25,3.25v9.934a.937.937,0,0,0,1.69.561l3.951-5.308a3.251,3.251,0,0,1,2.608-1.311h6.624L878.7,513.3l9.159,10.882h-6.649A3.25,3.25,0,0,1,878.587,522.839Z" transform="translate(-668.451 -481.32)" fill="#fff"/>
    <path id="Path_101232" data-name="Path 101232" d="M707.928,525.663a10.082,10.082,0,0,0-4.063-3.932,12.924,12.924,0,0,0-11.583,0,10.082,10.082,0,0,0-4.062,3.932,11.573,11.573,0,0,0-1.487,5.928,11.756,11.756,0,0,0,1.465,5.958,10.021,10.021,0,0,0,4.032,3.913,12.036,12.036,0,0,0,5.774,1.37,12.272,12.272,0,0,0,5.812-1.37,10.2,10.2,0,0,0,4.108-3.932,11.485,11.485,0,0,0,1.508-5.931A11.608,11.608,0,0,0,707.928,525.663Zm-3.843-1.53.455.471-1.024,1.024-.463-.49Zm-6.581-2.481h.734v1.5H697.5Zm-7.266,9.508h-1.5v-.726h1.5Zm1.417-7.041,1.04,1.037-.46.46-1.048-1.048Zm0,13.37-.444-.479,1.043-1.04.458.463Zm10.41,2.438h-2.283v1.527H695.96v-1.5h-2.28v-.761h1.9v-2.283a.609.609,0,0,0-.393-.634,5.98,5.98,0,0,1-3.269-4.106,6.1,6.1,0,0,1,10.481-5.446,5.785,5.785,0,0,1,1.53,3.548,6.1,6.1,0,0,1-3.464,6.042.5.5,0,0,0-.317.5c0,.783,0,1.568,0,2.383h1.9Zm2.039-2.437-1.059-1.059.441-.461,1.059,1.059Zm2.914-6.326h-1.492v-.734h1.492Z" transform="translate(-537.579 -499.659)" fill="#fff"/>
  </g>
</svg>
